<svg xmlns="http://www.w3.org/2000/svg" width="191" height="48" viewBox="0 0 191 48">
    <g fill="none" fill-rule="evenodd">
        <path fill="#FFF" d="M65.803 13.2c2.813-.025 5.846.859 7.952 2.873l-1.85 2.93c-1.524-1.29-3.8-2.241-5.888-2.222-4.719.042-7.169 3.494-7.133 7.47.036 4.037 2.64 7.686 7.3 7.643 2.298-.02 4.587-1.164 6.206-2.788l2.082 2.805c-1.828 1.898-4.566 3.531-8.408 3.566-6.746.06-11.146-4.786-11.203-11.129-.056-6.252 4.469-11.088 10.942-11.147M82.251 32.386c2.148-.019 3.52-2.217 3.503-4.098l-.004-.425-.665.006c-1.936.017-5.201.32-5.181 2.505.01 1.032.805 2.027 2.347 2.012m2.78-7.157l.665-.006-.002-.213c-.018-2.033-1.325-2.72-2.928-2.705-1.513.013-3.05.665-4.282 1.526l-1.447-2.749c1.261-1.043 3.734-1.946 6.033-1.967 4.023-.036 6.433 2.188 6.468 6.103l.087 9.682-3.57.032-.011-1.305a6.763 6.763 0 0 1 .08-1.124h-.06c-.923 1.648-2.758 2.818-4.845 2.837-2.783.025-5.098-1.775-5.124-4.597-.041-4.644 5.518-5.484 8.936-5.514M93.364 13.316l3.811-.034.146 16.145c.015 1.7.594 2.12 1.591 2.11.152 0 .363-.002.575-.035l.03 3.369c-.272.033-.695.098-1.21.102-2.116.02-4.753-.504-4.793-4.934l-.15-16.723zM102.106 13.237l3.812-.035.144 16.146c.015 1.7.595 2.12 1.593 2.11.15 0 .363-.003.574-.035l.03 3.369c-.272.033-.695.097-1.209.102-2.117.02-4.754-.504-4.794-4.934l-.15-16.723zM111.688 22.499l-1.996.018-.028-3.066 2.087-.018-.04-4.432 3.752-.033.039 4.43 3.51-.031.027 3.065-3.51.031.055 6.04c.023 2.55 2.023 2.896 3.082 2.886.211-.001.393-.003.695-.066l.03 3.368c-.302.033-.665.097-1.179.102-2.148.02-6.419-.58-6.465-5.77l-.059-6.524zM129.68 31.624c2.51-.023 4.58-1.984 4.554-4.868-.025-2.853-2.13-4.806-4.641-4.783-2.511.022-4.55 2.014-4.524 4.866.026 2.884 2.1 4.807 4.61 4.785m-.146-12.93c4.72-.042 8.53 3.293 8.573 8.027.043 4.765-3.708 8.138-8.397 8.18-4.689.042-8.5-3.262-8.543-8.027-.042-4.734 3.708-8.137 8.367-8.18M141.061 18.955l3.842-.035.083 9.166c.016 1.881.512 3.152 2.418 3.134 2.783-.024 4.303-2.497 4.278-5.259l-.063-7.101 3.811-.035.14 15.478-3.691.033-.016-1.82c-.006-.577.08-1.064.08-1.064l-.06.001c-.712 1.585-2.693 3.272-5.325 3.296-3.327.03-5.37-1.621-5.407-5.84l-.09-9.954zM167.013 18.356c2.087-.019 4.452.658 5.949 2.253l-1.7 2.656c-.977-.962-2.496-1.647-4.008-1.633-2.843.026-4.67 2.197-4.646 4.838.023 2.61 1.89 4.839 4.853 4.812 1.634-.015 3.38-.88 4.52-2.014l1.507 2.718c-1.438 1.561-3.85 2.554-6.33 2.577-5.112.046-8.411-3.536-8.452-8.028-.04-4.4 3.194-8.133 8.307-8.18M176.096 12.568l3.842-.035.068 7.527c.007.758-.079 1.305-.079 1.305h.06c.743-1.494 2.665-3.15 5.327-3.175 3.418-.03 5.4 1.743 5.437 5.84l.09 9.954-3.842.035-.083-9.166c-.017-1.881-.512-3.152-2.448-3.134-2.693.025-4.427 2.225-4.4 5.17l.064 7.192-3.842.035-.194-21.548z"/>
        <path fill="#1EB0CD" d="M23.988 20.843l13.41 13.213c6.092-7.684 6.069-18.778-.358-26.546L23.988 20.843z"/>
        <path fill="#FFF" d="M15.422 35.998l5.488-5.506 5.487 5.506H15.422zm5.449-11.97l-17.327 17.7c10.398 8.345 25.083 8.053 35.07-.216L20.872 24.028z"/>
        <path fill="#1EB0CD" d="M34.064 4.578C25.757-2.067 13.622-1.466 6.016 6.304c-7.606 7.77-7.987 19.954-1.215 28.167L34.064 4.578z"/>
    </g>
</svg>